<svg width="18" height="25" viewBox="0 0 18 25" fill="none" xmlns="http://www.w3.org/2000/svg">
<path d="M2.3479 9.14518C2.19197 9.48821 2.06724 9.61295 1.84894 9.67532C1.59275 9.74852 1.22048 9.6346 1.10051 9.39466C0.975776 9.14518 0.90124 8.69966 1.28762 8.24083C1.78657 7.64833 2.37908 7.4924 3.00277 7.46122C3.67511 7.4276 4.41345 7.70263 4.81148 7.96017C5.34161 8.3032 5.8234 9.13134 5.9653 9.67532C6.15241 10.3926 6.15241 10.9539 6.15241 11.3905C6.15241 11.8271 6.02167 12.4977 5.7782 13.1368C5.52872 13.7917 5.05888 15.1399 4.93621 15.5692C4.81148 16.0058 4.49963 17.6586 4.562 18.7812C4.63054 20.0149 4.90503 20.4964 5.65346 21.2448C6.37341 21.9647 7.46216 22.0868 7.80519 22.118C8.11576 22.1462 8.08585 22.1491 7.9923 21.962C7.92257 21.8226 7.52453 21.0577 7.33743 20.3404C7.15032 19.6232 7.05676 19.0619 7.05676 18.6253C7.05676 18.1887 7.11831 16.4752 7.71164 15.2885C8.14822 14.4154 8.34683 14.1856 8.61599 13.9164C8.8031 13.7293 8.789 11.0747 8.99021 10.0184C9.23968 8.7086 10.1129 6.21384 10.4247 5.49659C10.8565 4.50344 11.6334 3.72651 12.4094 2.9506L12.4205 2.93946C13.2001 2.15984 14.1357 1.25549 14.5411 1.0372C14.7624 0.918003 14.75 1.07469 14.6034 1.66089C14.4163 2.40932 14.1342 2.71839 14.3539 3.12657C14.5722 3.53197 14.8926 3.55532 15.3207 4.03092C15.6013 4.34276 15.4454 4.62343 15.9444 5.2783C16.1107 5.49659 16.225 5.55896 16.5057 5.74607C16.8181 5.95437 16.5681 6.33858 16.3809 6.65042C16.1932 6.96341 16.1315 7.3053 15.7261 7.52359C15.3207 7.74188 14.6346 7.67951 14.3539 7.8978C14.1045 8.09184 14.1045 8.67741 14.3228 9.08281C14.5411 9.48821 15.2063 9.83124 15.4454 10.5485C15.6013 11.0163 15.8196 12.5131 15.7884 13.168C15.7573 13.8229 15.8508 14.4154 16.1315 14.8208C16.4121 15.2262 16.7552 15.4445 16.9111 16.037C17.067 16.6295 16.9855 18.8399 16.9111 19.2802C16.1315 23.8955 14.8841 23.7707 12.4205 23.8955C11.8874 23.9225 10.2064 23.8955 9.39561 23.8955C8.79983 23.8955 7.46216 23.7707 6.43307 23.3342C5.40398 22.8976 4.65555 22.461 4.00068 21.4943C3.3458 20.5275 3.09633 19.1885 3.09633 18.1575C3.09633 16.8478 3.31462 15.7563 3.59528 14.8208C3.81981 14.0723 4.167 13.2615 4.31252 12.9497C4.71792 12.081 4.78029 11.1722 4.65555 10.3926C4.53724 9.65312 3.90712 9.114 3.53291 8.95808C3.22765 8.83089 2.5313 8.74169 2.3479 9.14518Z" fill="#FEFEFE" stroke="#212121"/>
</svg>
